<svg width="150" height="32" viewBox="0 0 150 32" fill="none" xmlns="http://www.w3.org/2000/svg">
<g clip-path="url(#clip0_157_361)">
<path d="M8.25946 31.7976C5.68648 31.7976 3.71892 30.9935 2.35675 29.3853C1.01982 27.7771 0.275672 25.569 0.124321 22.761L3.90811 21.7272C4.03424 23.7183 4.41262 25.3265 5.04324 26.5518C5.69911 27.7771 6.77116 28.3897 8.25946 28.3897C9.36938 28.3897 10.2018 28.0834 10.7568 27.4708C11.3369 26.8326 11.627 25.9264 11.627 24.7521C11.627 23.4758 11.3622 22.4164 10.8324 21.574C10.3027 20.7316 9.45765 19.7999 8.29729 18.7788L3.15135 14.1839C2.11711 13.2649 1.36036 12.2822 0.881078 11.2355C0.427024 10.1634 0.199997 8.86152 0.199997 7.3299C0.199997 5.05798 0.84324 3.29661 2.12973 2.0458C3.41621 0.794968 5.16938 0.169556 7.38919 0.169556C9.81081 0.169556 11.6396 0.820497 12.8757 2.12238C14.1117 3.42426 14.8559 5.44089 15.1081 8.17229L11.4757 9.16785C11.3495 7.35542 10.9964 5.96421 10.4162 4.99417C9.86127 3.99862 8.85224 3.50084 7.38919 3.50084C6.30451 3.50084 5.47208 3.79439 4.89189 4.38152C4.3117 4.94311 4.02162 5.7855 4.02162 6.9087C4.02162 7.82768 4.17297 8.60626 4.47567 9.24443C4.77838 9.85708 5.29548 10.4825 6.02702 11.1207L11.2108 15.7155C12.5478 16.9153 13.6072 18.2172 14.3892 19.6212C15.1964 21.0252 15.6 22.6206 15.6 24.4075C15.6 26.6794 14.9189 28.4792 13.5568 29.8065C12.1946 31.1338 10.4288 31.7976 8.25946 31.7976ZM25.3113 3.654H20.1275V0.437588H34.6195V3.654H29.587V31.453H25.3113V3.654ZM45.3703 0.437588H49.4946L56.0405 31.453H51.9919L50.5919 23.6417H44.3486L42.873 31.453H38.8622L45.3703 0.437588ZM50.0243 20.5402L47.4514 6.56409L44.9162 20.5402H50.0243ZM62.1776 0.437588H65.0911L73.7938 21.0379V0.437588H77.3505V31.453H74.6262L65.81 10.2783V31.453H62.1776V0.437588ZM85.1951 0.437588H91.8546C95.1589 0.437588 97.4924 1.2034 98.8546 2.73502C100.242 4.26665 100.936 6.65344 100.936 9.89537V21.306C100.936 24.7266 100.255 27.2793 98.8924 28.9641C97.5554 30.6234 95.323 31.453 92.1951 31.453H85.1951V0.437588ZM91.8924 28.3514C93.3806 28.3514 94.4527 28.058 95.1087 27.4708C95.7897 26.8836 96.206 26.0923 96.3573 25.0967C96.5338 24.0757 96.6222 22.544 96.6222 20.5019V10.4314C96.6222 8.67007 96.5087 7.3299 96.2816 6.41092C96.0797 5.46643 95.6384 4.7772 94.9573 4.34323C94.2762 3.88374 93.2168 3.654 91.7789 3.654H89.4708V28.3514H91.8924Z" fill="#333333"/>
<path d="M120.492 23.1439H111.601V18.8554L119.584 0.437622H124.352V19.5063H127.795V23.1439H124.352V31.453H120.492V23.1439ZM120.492 19.5063V5.4154L115.498 19.5063H120.492ZM141.697 31.7976C139.552 31.7976 137.875 31.3636 136.664 30.4957C135.479 29.6279 134.659 28.4152 134.205 26.8581C133.751 25.301 133.524 23.3482 133.524 20.9997V0.437622H137.61V21.1911C137.61 23.5396 137.875 25.3265 138.405 26.5518C138.96 27.7771 140.057 28.3898 141.697 28.3898C143.336 28.3898 144.421 27.7771 144.951 26.5518C145.506 25.3265 145.783 23.5396 145.783 21.1911V0.437622H149.832V20.9997C149.832 23.3482 149.605 25.301 149.151 26.8581C148.697 28.4152 147.877 29.6279 146.691 30.4957C145.506 31.3636 143.841 31.7976 141.697 31.7976Z" fill="#969696"/>
</g>
<defs>
<clipPath id="clip0_157_361">
<rect width="150" height="32" fill="white"/>
</clipPath>
</defs>
</svg>
